<svg width="1254" height="1254" viewBox="0 0 1254 1254" version="1.1" xmlns="http://www.w3.org/2000/svg" xmlns:xlink="http://www.w3.org/1999/xlink" xml:space="preserve" xmlns:serif="http://www.serif.com/" style="fill:#000000;fill-rule:evenodd;clip-rule:evenodd;stroke-linejoin:round;stroke-miterlimit:2;">
    <g transform="matrix(1.224609,0,0,1.224609,6,-2)">
        <path d="M549.429,173.772C556.741,175.848 558.765,176.436 566.431,179.665C580.465,185.576 581.935,187.365 587.513,190.478C589.01,191.314 596.72,196.68 600.83,200.098C614.814,211.727 620.259,220.056 622.355,222.612C628.388,229.972 628.131,230.748 632.384,237.576C635.136,241.995 642.027,256.649 643.127,259.634C644.999,264.71 645.438,264.501 647.401,269.541C649.941,276.06 654.724,286.04 656.122,289.636C659.573,298.517 667.402,315.102 669.191,319.623C672.821,328.796 674.451,331.097 677.114,337.655C679.754,344.157 711.416,414.944 714.613,423.46C717.236,430.448 718.145,430.119 719.551,436.49C721.871,446.994 728.582,468.571 722.224,502.452C719.951,514.565 717.194,521.898 716.58,523.533C714.276,529.661 714.683,529.794 712.299,535.412C709.677,541.59 709.89,541.67 706.82,547.657C700.548,559.889 697.614,563.94 692.103,572.251C689.416,576.304 685.531,580.88 684.429,582.45C682.672,584.952 676.193,594.181 658.625,610.64C657.553,611.645 657.451,611.499 645.078,623.052C632.661,634.646 632.624,634.604 628.336,639.355C619.986,648.607 619.514,648.696 616.362,653.409C613.523,657.653 611.239,658.89 604.133,670.27C600.359,676.314 600.267,676.251 599.953,676.785C597.433,681.078 591.469,693.04 590.33,695.419C584.282,708.051 584.531,708.157 584.006,709.254C582.068,713.299 582.159,713.323 580.421,717.466C577.723,723.898 577.836,723.92 575.334,730.445C569.296,746.244 569.395,746.273 568.856,747.64C567.574,751.204 567.588,751.184 567.472,751.49C563.223,762.694 563.991,762.963 560.469,771.487C558.99,775.069 555.566,784.935 553.415,790.469C549.261,801.157 549.537,801.262 547.832,804.668C544.661,811.002 543.997,814.668 537.213,822.244C533.214,826.709 524.685,831.19 519.506,831.586C514.891,831.939 507.615,832.663 500.316,828.868C496.174,826.715 494.719,825.954 490.812,822.18C484.323,815.911 480.19,806.333 476.874,801.24C473.701,796.364 471.633,792.277 469.823,789.314C464.221,780.144 464.294,780.104 463.794,779.315C458.051,770.242 458.284,770.108 457.77,769.33C454.127,763.814 450.478,757.119 449.923,756.24C445.954,749.962 446.066,749.905 445.712,749.367C444.527,747.57 442.146,743.504 440.696,741.373C439.854,740.136 437.669,736.065 436.171,733.713C429.247,722.842 429.429,721.858 425.543,717.462C419.993,711.183 417.82,710.223 413.303,707.878C409.049,705.669 401.243,704.437 396.536,704.907C387.936,705.765 383.168,707.807 380.613,708.807C374.367,711.254 374.775,712.02 370.446,714.409C369.55,714.903 366.885,716.374 360.658,722.657C355.981,727.377 349.623,737.001 349.376,737.424C344.175,746.32 344.077,746.264 339.754,755.622C330.59,775.459 330.832,775.561 330.029,777.282C327.182,783.378 327.614,783.538 324.827,789.645C323.012,793.622 317.709,806.918 312.788,812.741C312.494,813.089 309.926,816.127 309.04,817.046C309.006,817.081 302.056,823.598 300.536,824.551C294.438,828.375 283.826,833.922 268.496,833.842C244.37,833.717 214.425,834.28 209.494,833.538C198.791,831.926 187.208,828.813 175.898,817.126C171.025,812.091 167.699,805.496 167.285,804.604C164.146,797.837 161.524,791.638 161.713,777.504C161.73,776.298 161.804,770.732 163.877,762.592C165.606,755.8 175.007,736.602 180.771,722.618C182.43,718.593 182.551,718.656 183.108,717.334C186.251,709.882 186.263,709.903 189.512,702.505C191.758,697.391 191.817,697.432 194.068,692.317L204.142,669.348C204.532,668.461 208.58,659.235 209.057,658.279C210.601,655.19 212.954,649.214 213.769,647.637C215.879,643.555 216.516,641.284 218.277,637.397C223.092,626.769 225.849,619.577 226.816,617.652C228.62,614.06 228.523,614.031 230.151,610.351C233.469,602.85 242.66,581.537 243.209,580.371C247.585,571.066 247.256,570.936 253.587,556.542C255.754,551.614 255.666,551.591 257.824,546.65C258.7,544.647 268.602,521.982 268.753,521.599C270.103,518.181 274.106,509.376 274.12,509.343C280.614,493.714 280.775,493.787 281.327,492.423C283.764,486.39 284.023,486.524 286.531,480.513C298.443,451.956 298.687,452.068 299.672,449.565C302.484,442.425 307.303,432.489 310.155,425.369C311.58,421.812 311.893,421.966 313.368,418.442C313.867,417.25 318.935,405.143 319.666,403.575C324.365,393.493 324.219,393.438 324.644,392.57C328.147,385.426 327.841,384.403 329.841,380.677C330.921,378.665 335.845,366.616 337.679,362.587C342.799,351.339 342.617,351.264 343.091,350.3C346.3,343.766 349.333,335.895 351.092,332.298C354.312,325.715 354.354,324.287 355.657,321.574C362.03,308.295 363.047,304.144 364.786,300.639C366.644,296.896 368.084,292.67 368.981,290.744C375.167,277.474 380.305,264.101 388.666,246.578C390.592,242.541 390.724,242.628 392.858,238.684C395.177,234.401 401.175,225.258 406.594,218.574C410.376,213.909 418.892,205.353 422.324,202.3C438.992,187.47 458.028,180.144 458.652,179.841C464.992,176.763 479.292,172.643 481.451,172.247C482.5,172.055 489.32,170.806 494.58,169.987C504.67,168.416 522.744,168.961 525.514,169.408C535.871,171.078 540.485,171.12 549.429,173.772ZM561.974,674.776C558.221,680.634 558.138,680.563 554.254,686.346C552.343,689.193 549.981,693.261 547.131,697.243C546.077,698.715 543.167,703.838 539.684,708.629C533.811,716.708 526.578,730.718 521.568,733.612C517.017,736.241 513.679,737.416 507.571,735.308C504.945,734.401 501.882,731.779 500.824,730.271C497.473,725.495 497.721,725.355 494.35,720.603C493.747,719.751 493.938,719.64 487.243,709.666C484.613,705.748 484.711,705.712 482.08,701.8C481.894,701.523 481.851,701.566 479.698,698.377C479.039,697.402 465.986,677.415 465.892,677.261C462.689,672.003 451.91,656.425 437.135,633.756C436.828,633.285 433.348,628.416 429.061,621.793C427.619,619.564 423.521,613.555 423.035,612.842C421.886,611.157 421.788,611.24 420.68,609.395C416.516,602.468 416.062,602.773 412.012,595.761C409.472,591.363 408.611,590.987 405.595,585.443C404.567,583.553 396.282,570.835 390.628,555.456C383.193,535.229 382.379,527.481 381.001,516.557C380.014,508.728 380.099,496.777 381.257,489.462C381.889,485.468 381.69,485.456 382.274,481.465C382.407,480.553 385.289,469.278 386.263,466.42C386.543,465.599 392.123,447.54 402.18,432.297C402.815,431.333 407.149,424.766 410.61,420.586C412.064,418.831 413.464,416.475 418.518,411.519C421.041,409.044 420.945,408.961 423.59,406.603C425.984,404.469 435.346,394.908 454.665,384.835C458.979,382.586 478.169,373.909 495.462,372.123C495.897,372.078 515.723,368.326 541.42,373.861C543.394,374.286 552.877,376.329 565.387,381.765C576.667,386.667 589.064,394.711 591.422,396.599C595.028,399.487 600.872,403.432 610.077,412.908C612.364,415.261 615.195,417.781 624.131,430.751C627.858,436.16 629.688,439.86 630.099,440.691C634.306,449.194 635.11,449.663 639.866,464.38C642.114,471.337 641.835,471.395 643.39,478.524C643.392,478.533 645.17,492.508 645.238,496.505C645.469,510.291 642.964,526.466 640.287,535.435C637.706,544.086 637.956,544.153 634.664,552.564C633.906,554.499 630.233,563.882 624.121,576.307C623.36,577.853 612.159,598.817 606.241,607.324C604.338,610.061 598.232,619.88 592.822,627.717C589.907,631.941 590.138,632.067 587.158,636.262C586.526,637.151 581.416,645.358 578.363,649.403C577.987,649.902 570.934,661.192 569.36,663.4C568.921,664.016 568.97,664.039 564.158,671.288C563.976,671.563 564.059,671.612 561.974,674.776Z"/>
    </g>
    <g transform="matrix(1.224609,0,0,1.224609,6,-2)">
        <path d="M694.713,774.407C692.694,770.022 692.596,769.454 692.191,768.655C689.678,763.702 688.979,761.377 686.949,757.292C684.257,751.875 679.616,740.592 670.139,727.759C667.71,724.469 661.057,718.595 660.191,717.896C659.368,717.232 654.112,713.338 652.55,712.426C643.773,707.298 635.133,705.607 633.539,705.296C621.902,703.019 614.438,706.589 614.645,703.494C614.734,702.174 622.25,688.091 625.82,682.723C631.058,674.847 632.502,673.016 633.137,672.212C638.16,665.847 642.496,661.066 643.172,660.236C646.324,656.362 646.597,656.646 650.123,653.117C657.083,646.155 660.203,643.776 661.153,643.052C663.035,641.617 663.047,641.071 675.406,630.388C676.09,629.797 676.72,629.253 683.462,622.462C685.608,620.3 685.933,620.622 703.349,601.365C707.911,596.32 713.944,588.588 714.607,587.571C715.873,585.629 719.874,580.173 724.064,573.23C727.662,567.268 727.45,567.167 728.812,564.659C735.885,551.64 741.732,532.276 742.613,526.519C743.318,521.907 743.797,522.022 744.293,518.467C745.276,511.434 745.952,511.538 746.284,504.467C746.294,504.24 746.455,500.813 748.407,502.591C748.58,502.75 749.195,504.442 749.255,504.607C749.452,505.148 750.83,508.94 751.92,511.286C757.772,523.878 757.504,523.98 763.199,536.636C766.813,544.669 768.875,549.704 769.684,551.411C771.324,554.87 771.206,554.901 772.781,558.371C777.733,569.283 777.392,569.409 777.83,570.352C782.449,580.306 782.37,580.321 786.715,590.408C791.95,602.562 795.606,610.784 796.391,612.551C806.603,635.522 806.646,635.489 807.49,637.504C810.664,645.087 810.86,644.995 811.135,645.654C811.662,646.913 815.56,656.231 817.884,661.319C820.676,667.433 820.39,667.547 823.312,673.597C827.311,681.874 826.981,682.008 830.697,690.412C831.131,691.394 835.917,702.217 836.135,702.67C839.655,710.011 840.124,712.02 841.303,714.593C844.575,721.733 844.436,721.781 844.724,722.399C848.538,730.57 848.826,731.989 849.936,734.284C853.838,742.349 853.412,742.52 857.12,750.672C861.452,760.194 861.083,760.338 863.165,770.575C864.683,778.035 863.607,786.558 863.424,787.484C861.59,796.789 860.932,797.936 860.702,798.579C858.594,804.485 853.907,811.416 853.243,812.319C851.355,814.889 847.357,819.244 845.537,820.545C843.839,821.758 838.248,827.376 828.486,830.459C816.295,834.31 809.547,833.868 806.497,833.856C771.805,833.716 754.363,834.342 748.548,833.236C736.041,830.857 731.534,827.638 729.436,826.629C726.784,825.355 720.212,820.393 718.946,819.042C708.66,808.062 707.241,802.52 704.789,797.377C702.467,792.507 702.617,792.455 700.614,787.453C699.028,783.491 698.626,783.691 694.713,774.407Z"/>
    </g>
    <g transform="matrix(1.224609,0,0,1.224609,6,-2)">
        <path d="M569.399,461.59C572.261,465.016 571.945,465.231 575.086,469.744C583.145,485.17 586.418,496.315 585.12,513.462C584.739,518.502 583.713,522.715 583.52,523.505C582.312,528.463 580.775,533.9 576.499,542.5C575.935,543.634 571.626,550.16 567.286,555.325C555.541,569.301 539.487,575.328 538.545,575.64C524.215,580.399 517.269,579.853 510.509,580.025C507.955,580.09 498.345,579.084 492.606,577.16C486.452,575.096 486.543,574.906 480.717,572.06C478.521,570.987 467.799,564.844 460.853,557.169C459.257,555.406 455.111,550.037 454.625,549.407C452.827,547.08 453.001,546.982 449.739,541.361C446.57,535.899 443.457,526.508 442.908,523.432C441.115,513.371 440.804,508.755 441.301,501.485C441.479,498.891 442.599,492.646 442.618,492.517C443.204,488.373 443.212,488.272 447.235,478.386C449.353,473.181 449.839,473.442 452.476,468.486C453.142,467.234 460.427,456.161 470.154,449.033C477.268,443.82 477.389,444.017 485.327,440.135C487.331,439.155 498.962,434.87 508.502,434.547C522.664,434.068 526.354,435.672 530.473,436.619C533.782,437.38 537.727,438.262 547.597,443.311C548.312,443.676 554.77,447.458 557.366,449.66C560.609,452.411 560.709,452.288 563.649,455.358C564.118,455.848 567.846,459.74 569.399,461.59Z"/>
    </g>
</svg>
